<mxfile host="app.diagrams.net" agent="Mozilla/5.0 (Windows NT 10.0; Win64; x64) AppleWebKit/537.36 (KHTML, like Gecko) Chrome/116.0.5845.97 Safari/537.36 SE 2.X MetaSr 1.0" version="26.2.9">
  <diagram id="prtHgNgQTEPvFCAcTncT" name="Page-1">
    <mxGraphModel dx="1181" dy="644" grid="1" gridSize="10" guides="1" tooltips="1" connect="1" arrows="1" fold="1" page="1" pageScale="1" pageWidth="827" pageHeight="1169" math="0" shadow="0">
      <root>
        <mxCell id="0" />
        <mxCell id="1" parent="0" />
        <mxCell id="n8PuyOx6uOkXC0G1h50T-67" value="数据空间理事会" style="whiteSpace=wrap;strokeWidth=2;fontSize=18;fillColor=#214A7E;strokeColor=none;fontStyle=1;fontColor=#FFFFFF;fillStyle=auto;" parent="1" vertex="1">
          <mxGeometry x="745" y="210" width="172" height="54" as="geometry" />
        </mxCell>
        <mxCell id="n8PuyOx6uOkXC0G1h50T-103" style="edgeStyle=orthogonalEdgeStyle;rounded=0;orthogonalLoop=1;jettySize=auto;html=1;exitX=0.5;exitY=1;exitDx=0;exitDy=0;entryX=0.5;entryY=0;entryDx=0;entryDy=0;fontSize=18;fontStyle=1;fontColor=#FFFFFF;strokeWidth=1.5;" parent="1" source="n8PuyOx6uOkXC0G1h50T-68" target="n8PuyOx6uOkXC0G1h50T-69" edge="1">
          <mxGeometry relative="1" as="geometry" />
        </mxCell>
        <mxCell id="n8PuyOx6uOkXC0G1h50T-68" value="可信数据空间" style="aspect=fixed;strokeWidth=2;whiteSpace=wrap;container=0;flipV=1;fontSize=18;fillColor=#214A7E;strokeColor=#6C8EBF;fontStyle=1;fontColor=#FFFFFF;" parent="1" vertex="1">
          <mxGeometry x="772" y="314" width="118" height="118" as="geometry" />
        </mxCell>
        <mxCell id="XHmBVnbhQlNH2gRXufJ--2" style="edgeStyle=orthogonalEdgeStyle;rounded=0;orthogonalLoop=1;jettySize=auto;html=1;entryX=0.5;entryY=0;entryDx=0;entryDy=0;" edge="1" parent="1" source="n8PuyOx6uOkXC0G1h50T-69" target="XHmBVnbhQlNH2gRXufJ--1">
          <mxGeometry relative="1" as="geometry">
            <Array as="points">
              <mxPoint x="831" y="560" />
              <mxPoint x="392" y="560" />
            </Array>
          </mxGeometry>
        </mxCell>
        <mxCell id="XHmBVnbhQlNH2gRXufJ--3" style="edgeStyle=orthogonalEdgeStyle;rounded=0;orthogonalLoop=1;jettySize=auto;html=1;entryX=0.5;entryY=0;entryDx=0;entryDy=0;" edge="1" parent="1" source="n8PuyOx6uOkXC0G1h50T-69" target="n8PuyOx6uOkXC0G1h50T-74">
          <mxGeometry relative="1" as="geometry">
            <Array as="points">
              <mxPoint x="831" y="560" />
              <mxPoint x="562" y="560" />
            </Array>
          </mxGeometry>
        </mxCell>
        <mxCell id="XHmBVnbhQlNH2gRXufJ--5" style="edgeStyle=orthogonalEdgeStyle;rounded=0;orthogonalLoop=1;jettySize=auto;html=1;entryX=0.5;entryY=0;entryDx=0;entryDy=0;" edge="1" parent="1" source="n8PuyOx6uOkXC0G1h50T-69" target="n8PuyOx6uOkXC0G1h50T-75">
          <mxGeometry relative="1" as="geometry">
            <Array as="points">
              <mxPoint x="831" y="560" />
              <mxPoint x="736" y="560" />
            </Array>
          </mxGeometry>
        </mxCell>
        <mxCell id="XHmBVnbhQlNH2gRXufJ--7" style="edgeStyle=orthogonalEdgeStyle;rounded=0;orthogonalLoop=1;jettySize=auto;html=1;entryX=0.5;entryY=0;entryDx=0;entryDy=0;" edge="1" parent="1" source="n8PuyOx6uOkXC0G1h50T-69" target="n8PuyOx6uOkXC0G1h50T-77">
          <mxGeometry relative="1" as="geometry">
            <Array as="points">
              <mxPoint x="831" y="560" />
              <mxPoint x="1157" y="560" />
            </Array>
          </mxGeometry>
        </mxCell>
        <mxCell id="XHmBVnbhQlNH2gRXufJ--8" style="edgeStyle=orthogonalEdgeStyle;rounded=0;orthogonalLoop=1;jettySize=auto;html=1;entryX=0.5;entryY=0;entryDx=0;entryDy=0;" edge="1" parent="1" source="n8PuyOx6uOkXC0G1h50T-69" target="n8PuyOx6uOkXC0G1h50T-78">
          <mxGeometry relative="1" as="geometry">
            <Array as="points">
              <mxPoint x="831" y="560" />
              <mxPoint x="1352" y="560" />
            </Array>
          </mxGeometry>
        </mxCell>
        <mxCell id="n8PuyOx6uOkXC0G1h50T-69" value="数据空间主任" style="whiteSpace=wrap;strokeWidth=2;fontSize=18;fillColor=#214A7E;strokeColor=#6C8EBF;fontStyle=1;fontColor=#FFFFFF;" parent="1" vertex="1">
          <mxGeometry x="753" y="470" width="156" height="54" as="geometry" />
        </mxCell>
        <mxCell id="n8PuyOx6uOkXC0G1h50T-101" style="edgeStyle=orthogonalEdgeStyle;rounded=0;orthogonalLoop=1;jettySize=auto;html=1;exitX=0;exitY=0.5;exitDx=0;exitDy=0;entryX=1;entryY=0.5;entryDx=0;entryDy=0;fontSize=18;fontStyle=1;fontColor=#FFFFFF;strokeWidth=1.5;" parent="1" source="n8PuyOx6uOkXC0G1h50T-71" target="n8PuyOx6uOkXC0G1h50T-68" edge="1">
          <mxGeometry relative="1" as="geometry" />
        </mxCell>
        <mxCell id="n8PuyOx6uOkXC0G1h50T-71" value="伦理委员会" style="whiteSpace=wrap;strokeWidth=2;fontSize=18;fillColor=#214A7E;strokeColor=#6C8EBF;fontStyle=1;fontColor=#FFFFFF;" parent="1" vertex="1">
          <mxGeometry x="978" y="290" width="140" height="54" as="geometry" />
        </mxCell>
        <mxCell id="n8PuyOx6uOkXC0G1h50T-109" style="edgeStyle=orthogonalEdgeStyle;rounded=0;orthogonalLoop=1;jettySize=auto;html=1;entryX=0;entryY=0.5;entryDx=0;entryDy=0;fontStyle=1;fontColor=#FFFFFF;strokeWidth=1.5;" parent="1" source="n8PuyOx6uOkXC0G1h50T-72" target="n8PuyOx6uOkXC0G1h50T-68" edge="1">
          <mxGeometry relative="1" as="geometry" />
        </mxCell>
        <mxCell id="n8PuyOx6uOkXC0G1h50T-72" value="产业基金" style="whiteSpace=wrap;strokeWidth=2;fontSize=18;fillColor=#214A7E;strokeColor=#6C8EBF;fontStyle=1;fontColor=#FFFFFF;" parent="1" vertex="1">
          <mxGeometry x="560" y="398" width="124" height="54" as="geometry" />
        </mxCell>
        <mxCell id="n8PuyOx6uOkXC0G1h50T-74" value="数据管理部" style="whiteSpace=wrap;strokeWidth=2;fontSize=18;fillColor=#214A7E;strokeColor=#6C8EBF;fontStyle=1;fontColor=#FFFFFF;" parent="1" vertex="1">
          <mxGeometry x="492" y="600" width="140" height="50" as="geometry" />
        </mxCell>
        <mxCell id="n8PuyOx6uOkXC0G1h50T-75" value="技术开发部" style="whiteSpace=wrap;strokeWidth=2;fontSize=18;fillColor=#214A7E;strokeColor=#6C8EBF;fontStyle=1;fontColor=#FFFFFF;" parent="1" vertex="1">
          <mxGeometry x="666" y="600" width="140" height="50" as="geometry" />
        </mxCell>
        <mxCell id="n8PuyOx6uOkXC0G1h50T-76" value="数据空间建设部" style="whiteSpace=wrap;strokeWidth=2;fontSize=18;fillColor=#214A7E;strokeColor=#6C8EBF;fontStyle=1;fontColor=#FFFFFF;" parent="1" vertex="1">
          <mxGeometry x="852" y="600" width="170" height="50" as="geometry" />
        </mxCell>
        <mxCell id="n8PuyOx6uOkXC0G1h50T-77" value="数据空间运维部" style="whiteSpace=wrap;strokeWidth=2;fontSize=18;fillColor=#214A7E;strokeColor=#6C8EBF;fontStyle=1;fontColor=#FFFFFF;" parent="1" vertex="1">
          <mxGeometry x="1072" y="600" width="170" height="50" as="geometry" />
        </mxCell>
        <mxCell id="n8PuyOx6uOkXC0G1h50T-78" value="推广运营部" style="whiteSpace=wrap;strokeWidth=2;fontSize=18;fillColor=#214A7E;strokeColor=#6C8EBF;fontStyle=1;fontColor=#FFFFFF;" parent="1" vertex="1">
          <mxGeometry x="1282" y="600" width="140" height="50" as="geometry" />
        </mxCell>
        <mxCell id="n8PuyOx6uOkXC0G1h50T-107" style="edgeStyle=orthogonalEdgeStyle;rounded=0;orthogonalLoop=1;jettySize=auto;html=1;entryX=0;entryY=0.5;entryDx=0;entryDy=0;fontStyle=1;fontColor=#FFFFFF;strokeWidth=1.5;" parent="1" source="n8PuyOx6uOkXC0G1h50T-73" target="n8PuyOx6uOkXC0G1h50T-68" edge="1">
          <mxGeometry relative="1" as="geometry" />
        </mxCell>
        <mxCell id="n8PuyOx6uOkXC0G1h50T-73" value="合作单位" style="whiteSpace=wrap;strokeWidth=2;fontSize=18;fillColor=#214A7E;strokeColor=#6C8EBF;fontStyle=1;fontColor=#FFFFFF;" parent="1" vertex="1">
          <mxGeometry x="560" y="290" width="124" height="54" as="geometry" />
        </mxCell>
        <mxCell id="n8PuyOx6uOkXC0G1h50T-102" style="edgeStyle=orthogonalEdgeStyle;rounded=0;orthogonalLoop=1;jettySize=auto;html=1;entryX=1;entryY=0.5;entryDx=0;entryDy=0;fontSize=18;fontStyle=1;fontColor=#FFFFFF;strokeWidth=1.5;" parent="1" source="n8PuyOx6uOkXC0G1h50T-70" target="n8PuyOx6uOkXC0G1h50T-68" edge="1">
          <mxGeometry relative="1" as="geometry" />
        </mxCell>
        <mxCell id="n8PuyOx6uOkXC0G1h50T-70" value="技术委员会" style="whiteSpace=wrap;strokeWidth=2;fontSize=18;fillColor=#214A7E;strokeColor=#6C8EBF;fontStyle=1;fontColor=#FFFFFF;" parent="1" vertex="1">
          <mxGeometry x="978" y="398" width="140" height="54" as="geometry" />
        </mxCell>
        <mxCell id="n8PuyOx6uOkXC0G1h50T-105" value="" style="shape=flexArrow;endArrow=classic;html=1;rounded=0;entryX=0.5;entryY=0;entryDx=0;entryDy=0;exitX=0.5;exitY=1;exitDx=0;exitDy=0;fontSize=18;fillColor=#214A7E;strokeColor=#6c8ebf;fontStyle=1;fontColor=#FFFFFF;" parent="1" source="n8PuyOx6uOkXC0G1h50T-67" target="n8PuyOx6uOkXC0G1h50T-68" edge="1">
          <mxGeometry width="50" height="50" relative="1" as="geometry">
            <mxPoint x="830" y="270" as="sourcePoint" />
            <mxPoint x="870" y="220" as="targetPoint" />
          </mxGeometry>
        </mxCell>
        <mxCell id="XHmBVnbhQlNH2gRXufJ--1" value="数据合规部" style="whiteSpace=wrap;strokeWidth=2;fontSize=18;fillColor=#214A7E;strokeColor=#6C8EBF;fontStyle=1;fontColor=#FFFFFF;" vertex="1" parent="1">
          <mxGeometry x="322" y="600" width="140" height="50" as="geometry" />
        </mxCell>
        <mxCell id="XHmBVnbhQlNH2gRXufJ--6" style="edgeStyle=orthogonalEdgeStyle;rounded=0;orthogonalLoop=1;jettySize=auto;html=1;entryX=0.6;entryY=-0.061;entryDx=0;entryDy=0;entryPerimeter=0;" edge="1" parent="1" source="n8PuyOx6uOkXC0G1h50T-69" target="n8PuyOx6uOkXC0G1h50T-76">
          <mxGeometry relative="1" as="geometry">
            <Array as="points">
              <mxPoint x="831" y="560" />
              <mxPoint x="954" y="560" />
            </Array>
          </mxGeometry>
        </mxCell>
      </root>
    </mxGraphModel>
  </diagram>
</mxfile>
